<svg viewBox="0 0 169 40" fill="none" xmlns="http://www.w3.org/2000/svg" preserveAspectRatio="xMidYMid meet">
  <!-- Logo (40x40) -->
  <g transform="scale(1.21212)">
    <path d="M34.5145 21.6481C35.7665 23.4841 34.4517 25.9724 32.2294 25.9724H23.2544C22.9434 25.9724 22.6613 25.79 22.5337 25.5064L21.1113 22.3454C20.876 21.8225 21.2585 21.2309 21.8319 21.2309H26.9954C27.6304 21.2309 28.006 20.5199 27.6483 19.9954L24.0649 14.7407C23.7625 14.2973 23.1154 14.2779 22.787 14.7024L14.3054 25.6657C14.1557 25.8591 13.9249 25.9724 13.6803 25.9724H6.33254C1.29839 25.9724 -1.7164 20.3749 1.05377 16.1715L7.26686 6.74381C7.55713 6.30335 8.18923 6.26552 8.52997 6.66822L13.8274 12.9289C14.0683 13.2135 14.0773 13.6279 13.8491 13.9228L12.2459 15.9953C11.9708 16.3509 11.4549 16.4057 11.1113 16.1157L9.00059 14.335C8.63879 14.0297 8.09163 14.1088 7.83115 14.5041L5.01281 18.7806C4.32027 19.8315 5.074 21.2309 6.33254 21.2309H11.3537C11.5982 21.2309 11.829 21.1176 11.9787 20.9242L23.0287 6.64109C23.3571 6.21655 24.0042 6.23595 24.3066 6.67941L34.5145 21.6481Z" fill="white"/>
    <path d="M15.3344 0.291344C15.6507 -0.097115 16.2439 -0.0971145 16.5601 0.291345L18.9704 3.2521C19.0851 3.39305 19.1478 3.56925 19.1478 3.751V6.3105C19.1478 6.49226 19.0851 6.66845 18.9704 6.80941L16.5601 9.77016C16.2439 10.1586 15.6507 10.1586 15.3344 9.77016L12.9242 6.80941C12.8094 6.66845 12.7468 6.49226 12.7468 6.3105V3.751C12.7468 3.56925 12.8094 3.39305 12.9242 3.2521L15.3344 0.291344Z" fill="white"/>
    <path d="M16.7472 32.6066L18.7624 29.6142C18.859 29.4707 18.9106 29.3017 18.9106 29.1287V21.5444C18.9106 21.5444 15.0541 26.7205 14.4219 26.9971C13.7897 27.2737 13.1418 27.1947 13.1418 27.1947V29.1287C13.1418 29.3017 13.1934 29.4707 13.29 29.6142L15.3052 32.6066C15.6497 33.1183 16.4027 33.1183 16.7472 32.6066Z" fill="white"/>
  </g>

  <!-- ClashAi Text (126x28) -->
  <g transform="translate(44, 6)">
    <path d="M12.3773 0.957554C19.6121 0.957554 23.0522 4.57498 23.7261 9.8238H18.5127C17.9098 7.16392 15.8174 5.568 12.4127 5.568C7.97962 5.568 5.35521 8.4052 5.35521 14.2569C5.35521 20.9953 8.47613 23.2296 12.5191 23.2296C15.8883 23.2296 17.9098 21.6691 18.5482 18.9738H23.7261C22.9813 24.7545 18.9738 27.84 12.3773 27.84C4.46859 27.84 0 23.3714 0 14.5052C0 6.66741 3.86568 0.957554 12.3773 0.957554Z" fill="white"/>
    <path d="M31.0352 21.3144C31.0352 23.7615 31.4253 24.0452 33.4113 23.8679V27.379C32.6666 27.5208 31.2125 27.6272 30.3613 27.6272C27.2759 27.6272 26.141 26.4923 26.0346 23.9034C25.9637 23.0168 25.9637 22.2011 25.9637 20.8534V1.45406H31.0352V21.3144Z" fill="white"/>
    <path d="M43.2711 8.12148C48.8037 8.12148 50.8606 10.4976 51.1089 13.7959C51.1798 14.7534 51.2153 15.6401 51.2153 16.704V27.3435H46.6403L46.3566 24.8609C45.5054 27.379 43.2711 27.84 40.5049 27.84C37.0648 27.84 34.3694 25.8894 34.3694 22.2365C34.3694 17.5552 37.9514 15.8528 45.1862 15.8528H46.2147V15.179C46.2147 13.3348 45.6118 12.1645 43.0583 12.1645C40.824 12.1645 39.831 12.9447 39.6182 14.6825H34.9723C35.1142 10.6395 37.5967 8.12148 43.2711 8.12148ZM39.2991 21.6336C39.2991 23.0168 40.3985 23.797 42.1363 23.797C44.1223 23.797 46.2147 22.6621 46.2147 20.8179V19.3284C41.7461 19.1156 39.2991 19.5767 39.2991 21.6336Z" fill="white"/>
    <path d="M61.3405 8.12148C66.6603 8.12148 68.93 10.1784 69.1783 14.1151H64.2841C64.0359 12.3773 62.8655 11.9517 61.2341 11.9517C59.7446 11.9517 58.6097 12.5191 58.6097 13.5831C58.6097 14.718 59.5318 15.3563 62.4399 15.8174C67.3696 16.5621 69.7457 18.2645 69.7457 21.9528C69.7457 25.9249 66.1283 27.84 61.6242 27.84C56.3045 27.84 53.5737 25.9604 53.0772 21.7046H58.0423C58.3615 23.4069 59.4254 23.9743 61.7661 23.9743C63.6103 23.9743 64.7097 23.3714 64.7097 22.3784C64.7097 21.1371 63.433 20.4278 60.6667 20.0022C55.7016 19.1865 53.5737 17.697 53.5737 13.9023C53.5737 10.4622 56.6237 8.12148 61.3405 8.12148Z" fill="white"/>
    <path d="M76.8534 1.45406V11.5261C77.4563 8.90171 79.5133 8.12148 82.5278 8.12148C86.4644 8.12148 88.7342 9.68194 89.1952 13.122C89.3016 14.0796 89.3371 14.9662 89.3371 16.4912V27.3435H84.2656V16.4203C84.2656 13.9377 83.5917 12.3418 80.79 12.3418C78.4848 12.2709 76.8534 13.8668 76.8534 17.4133V27.3435H71.7819V1.45406H76.8534Z" fill="white"/>
    <path d="M109.918 1.45406L113.571 27.3435H108.429L107.542 20.9243H97.683L94.0655 27.3435H88.6394L103.641 1.45406H109.918ZM100.166 16.5267H106.975L105.804 6.2773L100.166 16.5267Z" fill="white"/>
    <path d="M123.6 8.61799L119.628 27.3435H114.521L118.528 8.61799H123.6ZM119.486 2.76627C119.486 1.24127 120.692 0 122.252 0C123.777 0 125.018 1.24127 125.018 2.76627C125.018 4.32673 123.777 5.53254 122.252 5.53254C120.692 5.53254 119.486 4.32673 119.486 2.76627Z" fill="white"/>
  </g>
</svg>
